<svg width="24" height="24" viewBox="0 0 24 24" fill="none" xmlns="http://www.w3.org/2000/svg">
<path d="M15.929 16.8859C16.3787 16.8859 16.7433 16.5213 16.7433 16.0716C16.7433 15.6219 16.3787 15.2573 15.929 15.2573C15.4793 15.2573 15.1147 15.6219 15.1147 16.0716C15.1147 16.5213 15.4793 16.8859 15.929 16.8859Z" fill="#2C323C"/>
<path d="M12.5702 16.8859H7.60309C7.15337 16.8859 6.78882 16.5213 6.78882 16.0716C6.78882 15.6219 7.15337 15.2573 7.60309 15.2573H12.5702C13.0199 15.2573 13.3844 15.6219 13.3844 16.0716C13.3844 16.5213 13.0199 16.8859 12.5702 16.8859Z" fill="#2C323C"/>
<path d="M15.929 12.652C16.3787 12.652 16.7433 12.2874 16.7433 11.8377C16.7433 11.388 16.3787 11.0234 15.929 11.0234C15.4793 11.0234 15.1147 11.388 15.1147 11.8377C15.1147 12.2874 15.4793 12.652 15.929 12.652Z" fill="#2C323C"/>
<path d="M12.5702 12.652H7.60309C7.15337 12.652 6.78882 12.2874 6.78882 11.8377C6.78882 11.388 7.15337 11.0234 7.60309 11.0234H12.5702C13.0199 11.0234 13.3844 11.388 13.3844 11.8377C13.3844 12.2874 13.0199 12.652 12.5702 12.652Z" fill="#2C323C"/>
<path d="M15.929 8.41761C16.3787 8.41761 16.7433 8.05305 16.7433 7.60334C16.7433 7.15363 16.3787 6.78906 15.929 6.78906C15.4793 6.78906 15.1147 7.15363 15.1147 7.60334C15.1147 8.05305 15.4793 8.41761 15.929 8.41761Z" fill="#2C323C"/>
<path d="M12.5702 8.41761H7.60309C7.15337 8.41761 6.78882 8.05306 6.78882 7.60334C6.78882 7.15361 7.15337 6.78906 7.60309 6.78906H12.5702C13.0199 6.78906 13.3844 7.15361 13.3844 7.60334C13.3844 8.05306 13.0199 8.41761 12.5702 8.41761Z" fill="#2C323C"/>
<path fill-rule="evenodd" clip-rule="evenodd" d="M4.50868 6.789V17.2117C4.50868 19.1905 6.11276 20.7945 8.09149 20.7945H15.9085C17.8873 20.7945 19.4913 19.1905 19.4913 17.2117V6.789C19.4913 4.81027 17.8873 3.20619 15.9085 3.20619H8.09149C6.11276 3.20619 4.50868 4.81027 4.50868 6.789ZM15.9085 22.4231H8.09149C5.21333 22.4231 2.88013 20.0899 2.88013 17.2117V6.789C2.88013 3.91084 5.21333 1.57764 8.09149 1.57764H15.9085C18.7867 1.57764 21.1199 3.91084 21.1199 6.789V17.2117C21.1199 20.0899 18.7867 22.4231 15.9085 22.4231Z" fill="#2C323C"/>
</svg>